<svg width="693" height="180" viewBox="0 0 693 180" fill="none" xmlns="http://www.w3.org/2000/svg">
<circle cx="20" cy="66" r="20" fill="#232323"/>
<circle cx="38" cy="124" r="20" fill="#77C7E4"/>
<ellipse cx="134" cy="61.5" rx="20" ry="20.5" fill="#FEFBD6"/>
<circle cx="110.5" cy="127.5" r="20.5" fill="#8A101B"/>
<ellipse cx="78" cy="20.5" rx="21" ry="20.5" fill="#0E3D19"/>
<path d="M78 22C109.457 22 135 47.7201 135 79.5C135 111.28 109.457 137 78 137C46.5432 137 21 111.28 21 79.5C21 47.7201 46.5432 22 78 22Z" stroke="black" stroke-width="6"/>
<path d="M186.122 120C185.183 120 184.415 119.701 183.818 119.104C183.22 118.507 182.922 117.781 182.922 116.928V33.6C182.922 32.6613 183.22 31.8933 183.818 31.296C184.415 30.6987 185.183 30.4 186.122 30.4H196.234C197.428 30.4 198.324 30.7413 198.922 31.424C199.519 32.0213 199.903 32.4907 200.074 32.832L224.778 78.912L249.738 32.832C249.908 32.4907 250.292 32.0213 250.89 31.424C251.487 30.7413 252.383 30.4 253.578 30.4H263.562C264.5 30.4 265.268 30.6987 265.866 31.296C266.463 31.8933 266.762 32.6613 266.762 33.6V116.928C266.762 117.781 266.463 118.507 265.866 119.104C265.268 119.701 264.5 120 263.562 120H252.81C251.871 120 251.103 119.701 250.506 119.104C249.994 118.507 249.738 117.781 249.738 116.928V61.504L231.818 95.68C231.391 96.448 230.836 97.1307 230.154 97.728C229.471 98.24 228.575 98.496 227.466 98.496H222.218C221.023 98.496 220.084 98.24 219.402 97.728C218.804 97.1307 218.292 96.448 217.866 95.68L199.946 61.504V116.928C199.946 117.781 199.647 118.507 199.05 119.104C198.452 119.701 197.727 120 196.874 120H186.122ZM309.456 120C308.602 120 307.877 119.701 307.28 119.104C306.682 118.507 306.384 117.781 306.384 116.928V46.144H282.704C281.85 46.144 281.125 45.8453 280.528 45.248C279.93 44.6507 279.632 43.9253 279.632 43.072V33.6C279.632 32.6613 279.93 31.8933 280.528 31.296C281.125 30.6987 281.85 30.4 282.704 30.4H347.984C348.922 30.4 349.69 30.6987 350.288 31.296C350.885 31.8933 351.184 32.6613 351.184 33.6V43.072C351.184 43.9253 350.885 44.6507 350.288 45.248C349.69 45.8453 348.922 46.144 347.984 46.144H324.432V116.928C324.432 117.781 324.133 118.507 323.536 119.104C322.938 119.701 322.17 120 321.232 120H309.456ZM397.363 121.28C389.512 121.28 382.813 119.915 377.267 117.184C371.805 114.453 367.539 110.528 364.467 105.408C361.48 100.203 359.859 94.016 359.603 86.848C359.517 83.1787 359.475 79.2533 359.475 75.072C359.475 70.8053 359.517 66.7947 359.603 63.04C359.859 55.9573 361.48 49.8987 364.467 44.864C367.539 39.8293 371.848 35.9467 377.395 33.216C383.027 30.4853 389.683 29.12 397.363 29.12C403.592 29.12 409.053 29.9733 413.747 31.68C418.44 33.3013 422.323 35.4347 425.395 38.08C428.552 40.64 430.899 43.4133 432.435 46.4C434.056 49.3867 434.909 52.16 434.995 54.72C435.08 55.488 434.867 56.128 434.355 56.64C433.843 57.152 433.16 57.408 432.307 57.408H419.123C418.269 57.408 417.629 57.2373 417.202 56.896C416.776 56.5547 416.392 56.0427 416.051 55.36C415.368 53.568 414.301 51.8187 412.851 50.112C411.4 48.32 409.437 46.8267 406.963 45.632C404.488 44.4373 401.288 43.84 397.363 43.84C391.56 43.84 386.909 45.376 383.411 48.448C379.997 51.52 378.163 56.5973 377.907 63.68C377.651 71.104 377.651 78.6133 377.907 86.208C378.163 93.4613 380.04 98.6667 383.539 101.824C387.123 104.981 391.816 106.56 397.619 106.56C401.459 106.56 404.872 105.877 407.859 104.512C410.931 103.147 413.32 101.013 415.027 98.112C416.819 95.2107 417.715 91.4987 417.715 86.976V83.008H402.099C401.245 83.008 400.52 82.7093 399.923 82.112C399.325 81.5147 399.027 80.7467 399.027 79.808V73.024C399.027 72.0853 399.325 71.3173 399.923 70.72C400.52 70.1227 401.245 69.824 402.099 69.824H432.691C433.629 69.824 434.355 70.1227 434.867 70.72C435.464 71.3173 435.763 72.0853 435.763 73.024V86.464C435.763 93.632 434.184 99.8187 431.027 105.024C427.955 110.229 423.517 114.24 417.715 117.056C411.997 119.872 405.213 121.28 397.363 121.28ZM472.543 120C471.86 120 471.22 119.744 470.623 119.232C470.111 118.72 469.855 118.08 469.855 117.312C469.855 116.971 469.94 116.587 470.111 116.16L500.958 33.6C501.215 32.7467 501.684 32.0213 502.367 31.424C503.135 30.7413 504.159 30.4 505.439 30.4H519.391C520.671 30.4 521.652 30.7413 522.335 31.424C523.017 32.0213 523.529 32.7467 523.871 33.6L554.719 116.16C554.804 116.587 554.847 116.971 554.847 117.312C554.847 118.08 554.591 118.72 554.079 119.232C553.567 119.744 552.969 120 552.287 120H541.151C539.956 120 539.06 119.744 538.463 119.232C537.951 118.635 537.609 118.08 537.439 117.568L531.423 101.952H493.407L487.391 117.568C487.22 118.08 486.836 118.635 486.239 119.232C485.727 119.744 484.873 120 483.679 120H472.543ZM497.887 87.232H526.943L512.351 47.68L497.887 87.232ZM569.869 120C569.015 120 568.29 119.701 567.693 119.104C567.095 118.507 566.797 117.781 566.797 116.928V33.472C566.797 32.6187 567.095 31.8933 567.693 31.296C568.29 30.6987 569.015 30.4 569.869 30.4H581.901C582.839 30.4 583.565 30.6987 584.077 31.296C584.674 31.8933 584.973 32.6187 584.973 33.472V116.928C584.973 117.781 584.674 118.507 584.077 119.104C583.565 119.701 582.839 120 581.901 120H569.869ZM608.119 120C607.265 120 606.54 119.701 605.943 119.104C605.345 118.507 605.047 117.781 605.047 116.928V33.6C605.047 32.6613 605.345 31.8933 605.943 31.296C606.54 30.6987 607.265 30.4 608.119 30.4H639.351C647.969 30.4 655.052 31.7227 660.599 34.368C666.231 37.0133 670.455 40.9387 673.271 46.144C676.172 51.3493 677.665 57.7067 677.751 65.216C677.921 68.9707 678.007 72.2987 678.007 75.2C678.007 78.1013 677.921 81.3867 677.751 85.056C677.58 92.992 676.129 99.5627 673.399 104.768C670.668 109.888 666.529 113.728 660.983 116.288C655.521 118.763 648.524 120 639.991 120H608.119ZM622.839 105.28H639.351C644.129 105.28 648.012 104.597 650.999 103.232C653.985 101.867 656.161 99.6907 657.527 96.704C658.977 93.632 659.745 89.6213 659.831 84.672C659.916 82.112 659.959 79.8933 659.959 78.016C660.044 76.0533 660.044 74.1333 659.959 72.256C659.959 70.2933 659.916 68.0747 659.831 65.6C659.66 58.6027 657.911 53.44 654.583 50.112C651.255 46.784 645.964 45.12 638.711 45.12H622.839V105.28Z" fill="black"/>
</svg>
